<svg xmlns="http://www.w3.org/2000/svg" viewBox="0 0 40 40" id="Whatsapp"><path d="M20.91 7A13 13 0 0 0 9.58 26.21a.23.23 0 0 1 0 .16l-.92 6.28a.25.25 0 0 0 .3.28l6.23-1.22a.22.22 0 0 1 .16 0A13 13 0 0 0 20.91 33 13.15 13.15 0 0 0 34 20.14 13 13 0 0 0 20.91 7ZM21 30.72a10.63 10.63 0 0 1-5.26-1.38.29.29 0 0 0-.18 0l-1.73.34-1.26.25-1.27.25.19-1.29.2-1.4.24-1.63a.25.25 0 0 0 0-.17A10.72 10.72 0 1 1 21 30.72Zm-4.23-17.19h.61a.6.6 0 0 1 .53.3 1.19 1.19 0 0 1 .17.34c.26.63.89 2.53.89 2.53a1 1 0 0 1-.25.89l-.76.76a.49.49 0 0 0-.09.58A10.1 10.1 0 0 0 22 23.19a.88.88 0 0 0 1-.24l1.1-1.27a.26.26 0 0 1 .32-.06l2.86 1.6a.26.26 0 0 1 .13.23v.42a1.2 1.2 0 0 1-.07.42 3 3 0 0 1-3 2.05c-2.53 0-5.83-2.41-7.35-4.31s-2.54-4.19-2.54-5.2a3.86 3.86 0 0 1 1.54-3.1 1.32 1.32 0 0 1 .78-.2Z" fill="#000000" class="color000000 svgShape"></path></svg>